<?xml version="1.0" standalone="no"?>
<svg version="1.0" xmlns="http://www.w3.org/2000/svg"
 width="35" height="32" fill="none" viewBox="0 0 1015.000000 1015.000000"
 preserveAspectRatio="xMidYMid meet">

<g transform="translate(0.000000,1015.000000) scale(0.100000,-0.100000)"
fill="#635BFF" stroke="none">
<path d="M5755 9480 c-33 -4 -95 -8 -137 -9 -43 -1 -78 -5 -78 -10 0 -5 -40
-12 -90 -16 -49 -4 -90 -11 -90 -15 0 -4 -58 -11 -130 -15 -71 -4 -132 -10
-135 -15 -3 -5 -43 -11 -90 -15 -47 -4 -85 -11 -85 -16 0 -5 -37 -9 -82 -9
-46 -1 -103 -5 -128 -11 -25 -6 -83 -15 -130 -20 -47 -5 -89 -14 -94 -19 -6
-6 -51 -10 -101 -10 -53 0 -113 -6 -141 -15 -27 -8 -71 -15 -97 -15 -26 0 -64
-7 -84 -15 -23 -10 -68 -15 -127 -15 -50 0 -107 -5 -126 -11 -19 -5 -71 -14
-115 -19 -44 -5 -100 -14 -125 -19 -72 -16 -464 -13 -535 4 -86 21 -472 21
-499 0 -11 -8 -41 -15 -66 -15 -25 0 -55 -7 -66 -15 -10 -8 -29 -15 -41 -15
-13 0 -23 -4 -23 -10 0 -5 -5 -10 -12 -10 -14 0 -101 -41 -108 -50 -3 -4 -15
-11 -28 -14 -13 -4 -36 -21 -53 -37 -16 -16 -34 -29 -39 -29 -6 0 -28 -18 -50
-40 -22 -22 -44 -40 -50 -40 -5 0 -10 -6 -10 -12 -1 -7 -14 -24 -30 -38 -17
-13 -30 -32 -30 -42 0 -10 -7 -21 -15 -24 -8 -4 -15 -12 -15 -19 0 -7 -7 -15
-15 -19 -8 -3 -15 -17 -15 -31 0 -16 -6 -25 -15 -25 -9 0 -15 -9 -15 -25 0
-14 -7 -28 -15 -31 -10 -4 -15 -20 -15 -45 0 -21 -4 -39 -10 -39 -5 0 -12 -16
-16 -35 -3 -20 -12 -35 -20 -35 -8 0 -14 -4 -14 -9 0 -4 -61 -10 -135 -13 -84
-3 -140 -9 -147 -16 -7 -7 -35 -12 -63 -12 -27 0 -68 -5 -90 -11 -22 -6 -74
-15 -115 -19 -83 -9 -150 -25 -193 -46 -16 -8 -44 -14 -62 -14 -20 0 -35 -6
-39 -15 -3 -8 -14 -15 -24 -15 -11 0 -25 -7 -32 -15 -7 -8 -21 -15 -32 -15
-10 0 -29 -11 -41 -24 -12 -13 -33 -27 -45 -31 -13 -4 -42 -25 -63 -46 -21
-21 -44 -39 -49 -39 -6 0 -10 -7 -10 -15 0 -8 -7 -15 -15 -15 -8 0 -15 -6 -15
-12 -1 -7 -14 -24 -30 -38 -17 -13 -30 -28 -30 -33 0 -5 -6 -15 -13 -22 -28
-32 -35 -43 -41 -63 -4 -12 -12 -22 -17 -22 -5 0 -9 -9 -9 -20 0 -11 -7 -23
-15 -26 -8 -4 -15 -18 -15 -33 0 -15 -7 -36 -15 -47 -8 -10 -15 -31 -15 -46 0
-15 -7 -34 -17 -43 -14 -15 -16 -45 -16 -238 1 -183 4 -227 17 -252 9 -18 16
-55 16 -91 0 -33 5 -65 12 -72 6 -6 13 -49 16 -94 3 -46 8 -85 13 -88 5 -3 11
-39 15 -80 4 -41 10 -80 15 -85 4 -6 11 -50 15 -98 4 -48 10 -87 14 -87 4 0
10 -32 14 -72 3 -39 10 -76 15 -82 5 -6 11 -48 14 -94 3 -45 9 -88 15 -95 5
-7 12 -43 15 -82 3 -38 10 -71 16 -73 7 -2 11 -35 11 -87 0 -58 4 -88 14 -97
8 -9 15 -44 18 -88 2 -45 8 -75 16 -78 8 -2 12 -30 12 -82 0 -57 4 -81 15 -90
11 -9 15 -32 15 -80 0 -48 4 -71 15 -80 11 -9 15 -35 15 -99 1 -60 5 -92 15
-105 10 -13 15 -44 15 -85 1 -42 6 -73 15 -85 10 -13 15 -43 15 -87 0 -40 6
-78 15 -95 8 -16 15 -52 15 -79 0 -28 5 -56 12 -63 6 -6 14 -51 16 -99 2 -49
9 -93 14 -100 5 -6 12 -47 15 -90 3 -43 9 -80 13 -83 4 -3 13 -45 19 -95 18
-150 34 -250 41 -255 4 -3 10 -48 12 -100 4 -56 10 -96 17 -98 6 -2 11 -27 11
-59 0 -30 6 -69 14 -86 8 -18 16 -72 18 -121 2 -60 7 -91 16 -94 8 -2 12 -27
12 -77 0 -52 4 -78 15 -89 11 -11 15 -37 15 -99 0 -63 4 -88 15 -97 11 -9 15
-33 15 -87 0 -56 4 -75 15 -79 12 -5 15 -25 15 -88 1 -55 5 -87 15 -100 10
-13 15 -44 15 -85 1 -42 6 -73 15 -85 10 -14 15 -45 15 -97 0 -47 4 -79 11
-81 6 -2 13 -26 16 -53 3 -28 10 -53 15 -56 5 -3 12 -23 15 -45 4 -21 12 -45
20 -52 7 -7 13 -20 13 -28 0 -8 4 -14 9 -14 5 0 12 -14 16 -30 4 -17 11 -30
16 -30 5 0 9 -7 9 -15 0 -9 7 -18 15 -21 8 -4 15 -12 15 -19 0 -8 13 -27 30
-43 16 -17 30 -35 30 -41 0 -6 7 -11 15 -11 8 0 15 -7 15 -15 0 -8 7 -15 15
-15 8 0 15 -7 15 -15 0 -8 6 -15 13 -15 6 -1 23 -14 37 -30 13 -17 32 -30 42
-30 10 0 21 -7 24 -15 4 -8 12 -15 19 -15 7 0 15 -7 19 -15 3 -8 17 -15 31
-15 14 0 25 -4 25 -10 0 -5 12 -13 27 -16 15 -4 34 -13 41 -21 7 -7 26 -13 41
-13 15 0 32 -5 39 -12 6 -6 30 -15 54 -19 24 -4 68 -13 98 -20 60 -12 254 -6
273 9 7 5 41 12 77 16 35 3 69 11 74 16 6 6 46 10 91 10 44 1 98 7 120 15 22
8 67 15 100 15 33 0 73 7 89 15 19 10 58 15 115 15 49 0 103 6 126 15 22 8 63
14 91 15 28 0 71 7 94 15 24 9 77 15 122 15 44 0 88 5 99 11 11 5 58 13 105
16 46 3 87 10 90 14 2 5 16 4 30 -1 14 -6 36 -10 48 -10 13 0 29 -7 36 -15 7
-8 27 -15 45 -15 20 0 35 -6 39 -15 3 -8 16 -15 30 -15 13 0 26 -5 28 -10 2
-6 21 -13 43 -17 22 -3 44 -12 48 -20 4 -7 17 -13 28 -13 11 0 27 -7 35 -15 9
-8 29 -15 45 -15 17 0 37 -7 45 -15 9 -8 24 -15 35 -15 10 0 19 -4 19 -10 0
-5 18 -13 40 -16 22 -4 40 -10 40 -14 0 -5 13 -11 30 -15 16 -4 30 -10 30 -15
0 -5 20 -12 45 -16 25 -3 45 -10 45 -14 0 -5 14 -11 30 -15 17 -4 30 -11 30
-16 0 -5 10 -9 23 -9 12 0 48 -13 80 -29 32 -16 74 -32 93 -35 19 -4 34 -11
34 -16 0 -4 14 -11 30 -15 17 -4 30 -11 30 -16 0 -5 11 -9 25 -9 14 0 51 -13
82 -30 31 -16 66 -30 79 -30 12 0 24 -4 26 -8 6 -14 88 -52 113 -52 14 0 25
-4 25 -9 0 -5 12 -12 27 -16 15 -3 31 -11 34 -17 3 -5 25 -12 48 -15 22 -3 41
-9 41 -14 0 -4 14 -10 30 -14 17 -4 30 -11 30 -15 0 -5 17 -12 37 -16 21 -4
57 -17 79 -29 23 -12 58 -25 78 -29 20 -4 36 -11 36 -16 0 -4 14 -11 30 -15
17 -4 30 -11 30 -16 0 -5 13 -9 29 -9 16 0 31 -6 35 -15 3 -8 15 -15 26 -15
12 0 28 -7 36 -15 9 -8 28 -15 43 -15 16 0 34 -7 41 -15 7 -8 20 -15 29 -15 9
0 25 -7 35 -15 11 -8 32 -15 48 -15 15 0 28 -4 28 -9 0 -5 12 -12 27 -16 15
-3 30 -11 34 -16 3 -5 23 -12 45 -16 21 -3 43 -12 47 -20 4 -7 17 -13 28 -13
11 0 27 -7 35 -15 9 -8 28 -15 44 -15 16 0 30 -7 34 -15 3 -8 17 -15 31 -15
14 0 25 -4 25 -10 0 -5 16 -12 35 -16 19 -3 35 -10 35 -15 0 -5 8 -9 18 -9 10
0 35 -9 57 -20 22 -11 47 -20 57 -20 9 0 19 -4 22 -9 3 -5 22 -12 41 -15 19
-4 35 -11 35 -15 0 -5 26 -11 57 -13 31 -3 59 -10 61 -16 6 -19 360 -16 405 3
20 8 54 15 76 15 22 0 42 4 46 9 3 5 19 12 36 16 17 4 42 13 57 21 15 8 34 14
43 14 9 0 22 7 29 15 7 8 19 15 26 15 8 0 14 4 14 9 0 5 12 12 27 16 15 3 37
17 50 31 12 13 31 24 43 24 11 0 20 7 20 15 0 8 4 15 9 15 18 0 171 144 171
161 0 5 7 12 15 15 8 4 15 12 15 19 0 7 7 15 15 19 8 3 15 14 15 25 0 11 6 24
13 28 18 12 47 68 47 91 0 11 7 22 15 26 8 3 15 12 15 20 0 7 7 27 15 42 8 16
15 37 15 47 0 9 5 17 10 17 6 0 10 6 10 13 0 6 6 24 14 39 8 15 17 40 21 57 4
17 11 31 16 31 5 0 9 11 9 25 0 14 7 28 15 31 9 4 15 19 15 40 0 22 6 37 15
40 9 4 15 19 15 35 0 19 5 29 15 29 10 0 15 10 15 34 0 18 7 39 15 46 8 7 15
23 15 37 0 13 7 26 15 29 8 4 15 18 15 34 0 15 7 33 15 40 8 7 15 23 15 37 0
13 7 26 15 29 8 4 15 16 15 29 0 12 14 47 30 78 17 31 30 66 30 78 0 11 7 27
15 35 8 9 15 24 15 35 0 10 4 19 10 19 5 0 13 18 16 40 4 22 10 40 15 40 5 0
9 9 9 19 0 11 7 26 15 35 8 8 15 24 15 35 0 12 9 38 20 58 11 21 20 43 20 50
0 7 5 13 10 13 6 0 10 14 10 30 0 18 6 33 15 36 8 4 15 16 15 29 0 12 7 28 15
35 8 7 15 28 15 46 0 24 5 34 15 34 10 0 15 10 15 29 0 16 6 31 15 35 9 3 15
18 15 40 0 21 6 36 15 40 8 3 15 16 15 29 0 14 7 30 15 37 8 7 15 26 15 42 0
16 6 31 15 34 8 4 15 17 15 31 0 13 7 31 15 39 8 9 15 26 15 38 0 13 7 29 15
36 8 7 15 23 15 36 0 13 4 24 10 24 5 0 12 16 16 35 3 19 10 35 14 35 4 0 10
18 14 40 3 22 10 40 15 40 5 0 12 16 15 35 4 19 11 35 16 35 6 0 10 8 10 19 0
10 7 24 15 31 8 7 15 23 15 36 0 12 7 29 15 38 8 8 15 26 15 41 0 14 7 28 15
31 8 4 15 18 15 34 0 16 7 35 15 44 8 8 15 26 15 40 0 16 6 26 15 26 10 0 15
10 15 29 0 16 7 34 15 41 8 7 15 20 15 30 0 10 7 23 15 30 8 7 15 26 15 42 0
16 6 31 15 34 9 4 15 19 15 35 0 16 4 29 10 29 5 0 13 18 16 40 4 22 10 40 14
40 5 0 11 13 15 30 4 16 10 30 15 30 4 0 11 18 15 40 4 22 11 40 16 40 5 0 9
5 9 11 0 11 16 50 45 114 8 17 17 42 21 58 3 15 10 27 15 27 5 0 9 14 9 30 0
18 6 33 15 36 8 4 15 17 15 29 0 13 7 30 15 39 8 8 15 26 15 41 0 14 7 28 15
31 8 4 15 18 15 34 0 16 7 30 15 34 9 3 15 18 15 40 0 21 6 36 15 40 8 3 15
16 15 30 0 13 7 26 15 30 9 3 15 18 15 34 0 16 7 35 15 42 8 7 15 20 15 29 0
10 7 26 15 37 8 10 15 29 15 42 0 12 5 22 10 22 6 0 10 6 10 13 0 7 9 29 20
50 11 20 20 46 20 57 0 11 4 20 9 20 5 0 12 13 16 30 4 16 11 32 16 35 5 4 9
17 9 29 0 13 6 29 14 35 8 7 17 27 20 46 4 19 11 35 16 35 6 0 10 11 10 25 0
14 7 28 15 31 9 4 15 19 15 35 0 17 6 32 15 35 9 4 15 19 15 40 0 22 6 37 15
40 8 4 15 17 15 30 0 14 7 27 15 30 8 4 15 18 15 34 0 16 7 35 15 44 8 8 15
28 15 44 0 16 7 35 15 42 22 19 22 431 0 450 -9 8 -15 30 -15 57 0 30 -5 45
-15 49 -9 4 -15 19 -15 40 0 24 -5 34 -15 34 -9 0 -15 9 -15 24 0 13 -7 26
-15 30 -9 3 -15 18 -15 36 0 20 -5 30 -15 30 -8 0 -15 7 -15 15 0 8 -4 15 -9
15 -5 0 -13 9 -16 21 -4 11 -19 33 -33 49 -15 16 -40 45 -57 64 -16 20 -36 36
-42 36 -7 0 -13 7 -13 15 0 8 -5 15 -10 15 -6 0 -21 11 -34 25 -13 14 -26 25
-30 25 -3 0 -15 9 -26 20 -11 11 -27 20 -35 20 -8 0 -15 4 -15 9 0 5 -13 12
-30 16 -16 4 -30 10 -30 15 0 5 -13 11 -30 15 -16 4 -30 10 -30 15 0 5 -13 11
-30 15 -16 4 -30 10 -30 15 0 4 -18 10 -40 14 -22 3 -40 11 -40 16 0 6 -8 10
-18 10 -10 0 -26 6 -37 14 -11 7 -37 16 -57 20 -21 4 -38 11 -38 16 0 6 -11
10 -25 10 -14 0 -28 7 -31 15 -4 10 -20 15 -45 15 -26 0 -42 5 -45 15 -4 8
-13 15 -22 15 -8 0 -33 8 -54 18 l-39 17 5 60 c2 33 9 85 16 115 15 68 10 367
-6 378 -6 4 -14 25 -17 47 -4 22 -11 41 -17 43 -5 2 -10 16 -10 32 0 16 -7 35
-15 44 -8 8 -15 19 -15 24 0 5 -7 15 -15 22 -8 7 -15 21 -15 31 0 11 -5 19
-10 19 -6 0 -15 11 -20 25 -5 14 -14 25 -20 25 -5 0 -10 9 -10 20 0 11 -4 20
-10 20 -15 0 -50 33 -50 47 0 7 -5 13 -11 13 -6 0 -28 18 -49 39 -21 21 -48
42 -59 46 -12 3 -21 11 -21 16 0 5 -7 9 -15 9 -9 0 -18 7 -21 15 -4 8 -16 15
-29 15 -13 0 -25 7 -29 15 -3 8 -14 15 -24 15 -11 0 -25 7 -32 15 -7 8 -27 15
-45 15 -18 0 -38 7 -45 15 -7 8 -23 15 -35 15 -12 0 -39 7 -58 15 -20 8 -54
15 -76 15 -21 0 -52 7 -67 15 -16 8 -45 15 -65 15 -20 0 -50 7 -65 15 -16 8
-53 15 -81 15 -29 0 -53 4 -53 9 0 5 -26 13 -57 17 -32 3 -63 10 -69 15 -6 5
-39 12 -73 15 -33 4 -61 10 -61 14 0 5 -27 11 -60 15 -33 4 -60 10 -60 15 0 4
-32 10 -72 14 -40 4 -75 10 -78 15 -3 5 -31 11 -62 15 -32 4 -58 11 -58 15 0
5 -30 11 -66 14 -37 3 -69 9 -73 15 -3 5 -35 11 -70 14 -37 3 -67 10 -69 16
-2 7 -10 12 -17 12 -9 0 -16 17 -21 45 -3 25 -10 45 -14 45 -4 0 -10 19 -13
42 -3 24 -11 44 -16 46 -6 2 -11 14 -11 27 0 12 -7 28 -15 35 -8 7 -15 23 -15
36 0 12 -7 29 -15 38 -8 8 -15 19 -15 24 0 6 -7 12 -15 16 -8 3 -15 15 -15 26
0 11 -7 23 -15 26 -8 4 -15 12 -15 20 0 8 -7 14 -15 14 -8 0 -15 7 -15 15 0 8
-7 15 -15 15 -8 0 -15 7 -15 15 0 8 -7 15 -15 15 -8 0 -15 7 -15 15 0 8 -7 15
-15 15 -8 0 -15 7 -15 15 0 8 -7 15 -15 15 -8 0 -15 7 -15 15 0 8 -8 15 -18
15 -10 0 -32 13 -48 30 -16 16 -39 30 -50 30 -12 0 -24 7 -28 15 -3 8 -12 15
-21 15 -8 0 -15 4 -15 9 0 5 -18 11 -40 15 -22 3 -40 11 -40 16 0 5 -18 13
-40 16 -22 4 -40 10 -40 14 0 4 -39 10 -87 14 -48 4 -99 9 -113 11 -14 1 -52
-1 -85 -5z m215 -429 c0 -5 14 -12 30 -16 17 -4 30 -10 30 -15 0 -4 12 -11 26
-14 26 -7 174 -148 174 -166 0 -15 -84 -12 -116 5 -16 8 -39 15 -52 15 -12 0
-39 7 -59 15 -19 8 -55 15 -79 15 -23 0 -46 5 -49 10 -3 6 -14 10 -23 10 -9 1
-35 9 -57 20 -23 11 -62 19 -92 20 -29 0 -53 4 -53 9 0 5 -19 12 -42 16 -23 4
-46 11 -52 17 -6 5 -20 15 -30 22 -16 11 -7 14 70 20 49 3 93 11 98 16 13 13
276 13 276 1z m-1566 -236 c11 -8 36 -15 55 -15 20 0 45 -7 55 -15 11 -8 41
-15 66 -15 25 0 55 -7 66 -15 10 -8 36 -15 56 -15 20 0 38 -5 40 -12 2 -6 31
-13 64 -15 32 -3 73 -11 91 -19 17 -8 43 -14 57 -14 14 0 26 -4 26 -9 0 -5 26
-13 57 -17 32 -4 72 -13 90 -20 18 -8 43 -14 57 -14 13 0 26 -4 28 -10 2 -5
40 -12 86 -16 45 -4 82 -11 82 -15 0 -5 23 -11 50 -15 28 -4 50 -10 50 -14 0
-4 31 -11 70 -14 38 -4 72 -11 75 -15 2 -5 36 -11 75 -15 38 -4 70 -11 70 -15
0 -5 36 -11 80 -14 45 -3 86 -9 93 -15 7 -5 34 -12 62 -15 27 -3 51 -10 53
-16 2 -6 28 -11 61 -11 35 0 65 -6 77 -15 10 -8 33 -15 50 -15 18 0 45 -7 60
-15 16 -8 52 -15 79 -15 28 0 59 -7 69 -15 11 -8 31 -15 44 -15 13 0 33 -5 45
-12 12 -7 49 -15 82 -19 64 -8 138 -25 168 -40 9 -5 45 -12 80 -16 34 -3 67
-9 72 -13 6 -5 33 -11 60 -15 28 -4 55 -11 61 -16 6 -5 37 -11 70 -15 32 -4
64 -10 69 -15 6 -4 34 -11 63 -15 28 -3 52 -10 52 -14 0 -4 32 -10 72 -14 40
-4 75 -10 78 -15 3 -4 29 -11 59 -14 30 -4 59 -11 65 -17 5 -5 30 -10 56 -10
25 0 57 -6 71 -14 14 -7 47 -16 72 -20 26 -4 49 -11 52 -17 4 -5 30 -9 58 -9
29 0 65 -7 81 -15 15 -8 39 -15 51 -15 13 0 30 -7 39 -15 8 -8 26 -15 40 -15
14 0 26 -4 26 -10 0 -5 7 -10 15 -10 8 0 24 -9 35 -20 11 -11 25 -20 30 -20 6
0 10 -7 10 -15 0 -8 7 -15 15 -15 8 0 15 -7 15 -15 0 -8 7 -15 15 -15 8 0 15
-7 15 -15 0 -8 4 -15 10 -15 5 0 12 -11 16 -25 3 -14 10 -25 14 -25 4 0 11
-12 15 -27 3 -15 12 -31 18 -35 8 -5 12 -54 12 -158 0 -123 -3 -153 -15 -161
-16 -11 -91 -3 -100 10 -3 5 -15 11 -27 15 -13 4 -23 12 -23 17 0 5 -11 9 -24
9 -13 0 -48 14 -79 30 -31 17 -68 30 -82 30 -14 0 -28 7 -31 15 -4 8 -16 15
-28 15 -11 0 -30 7 -40 15 -11 8 -30 15 -42 15 -12 0 -27 7 -34 15 -7 8 -23
15 -35 15 -13 0 -25 5 -27 10 -2 6 -21 13 -43 17 -22 3 -46 12 -53 20 -7 7
-22 13 -33 13 -10 0 -19 4 -19 10 0 5 -15 12 -34 16 -19 3 -61 19 -93 35 -32
16 -68 29 -80 29 -13 0 -23 4 -23 9 0 5 -13 12 -30 16 -16 4 -30 11 -30 16 0
5 -10 9 -22 9 -13 1 -41 9 -63 20 -22 11 -46 19 -52 20 -7 0 -13 4 -13 9 0 5
-18 11 -40 15 -22 3 -40 10 -40 15 0 5 -13 12 -30 16 -16 4 -30 10 -30 14 0 5
-19 11 -41 14 -23 3 -45 10 -48 15 -3 6 -19 14 -34 17 -15 4 -27 11 -27 16 0
5 -10 9 -23 9 -13 0 -50 14 -82 30 -32 17 -69 30 -82 30 -13 0 -23 4 -23 10 0
5 -12 13 -27 16 -16 4 -37 13 -48 20 -11 8 -27 14 -36 14 -10 0 -30 6 -46 14
-52 27 -101 46 -117 46 -9 0 -16 4 -16 9 0 5 -13 12 -30 16 -16 4 -30 11 -30
16 0 5 -9 9 -21 9 -21 0 -110 37 -119 50 -3 4 -23 10 -44 13 -22 4 -42 11 -45
16 -4 5 -19 13 -34 16 -15 4 -27 11 -27 15 0 4 -19 10 -41 13 -23 3 -45 9 -48
14 -11 15 -72 43 -95 43 -12 0 -31 7 -42 15 -10 8 -26 15 -35 15 -9 0 -22 7
-29 15 -7 8 -21 15 -32 15 -20 0 -78 28 -89 43 -3 5 -26 11 -50 14 -43 5 -66
13 -140 48 -30 15 -58 17 -191 13 -90 -2 -162 -8 -169 -15 -8 -6 -36 -13 -64
-16 -27 -3 -51 -10 -53 -16 -2 -6 -19 -11 -37 -11 -19 0 -40 -7 -49 -15 -8 -8
-24 -15 -36 -15 -11 0 -23 -7 -26 -15 -4 -9 -19 -15 -35 -15 -16 0 -29 -5 -29
-12 0 -7 -20 -22 -45 -33 -25 -11 -45 -25 -45 -32 0 -7 -5 -13 -11 -13 -6 0
-24 -12 -39 -27 -16 -16 -35 -33 -42 -40 -32 -29 -78 -83 -78 -92 0 -5 -7 -11
-15 -15 -8 -3 -15 -12 -15 -21 0 -8 -7 -15 -15 -15 -9 0 -15 -9 -15 -24 0 -13
-7 -26 -15 -30 -8 -3 -15 -12 -15 -19 0 -8 -7 -20 -15 -27 -8 -7 -15 -21 -15
-32 0 -10 -7 -21 -15 -24 -8 -4 -15 -13 -15 -21 0 -8 -7 -21 -15 -29 -8 -9
-15 -29 -15 -45 0 -16 -5 -29 -10 -29 -6 0 -14 -8 -17 -17 -4 -10 -13 -24 -20
-31 -7 -7 -13 -22 -13 -33 0 -10 -4 -19 -9 -19 -5 0 -12 -13 -16 -30 -4 -16
-10 -30 -15 -30 -5 0 -11 -13 -15 -30 -4 -16 -11 -30 -16 -30 -5 0 -11 -11
-15 -25 -3 -14 -10 -25 -14 -25 -5 0 -11 -13 -15 -30 -4 -16 -10 -30 -15 -30
-4 0 -11 -11 -14 -25 -4 -14 -11 -25 -16 -25 -6 0 -10 -14 -10 -30 0 -18 -6
-33 -15 -36 -8 -4 -15 -17 -15 -30 0 -15 -6 -24 -15 -24 -10 0 -15 -10 -15
-30 0 -20 -5 -30 -15 -30 -8 0 -15 -9 -15 -19 0 -10 -7 -21 -15 -25 -8 -3 -15
-16 -15 -29 0 -14 -7 -30 -15 -37 -8 -7 -15 -17 -15 -22 0 -5 -7 -16 -15 -24
-8 -9 -15 -24 -15 -35 0 -10 -4 -19 -10 -19 -5 0 -13 -12 -16 -27 -4 -15 -13
-34 -21 -41 -7 -7 -13 -22 -13 -33 0 -10 -4 -19 -10 -19 -5 0 -12 -11 -16 -25
-3 -14 -10 -25 -14 -25 -4 0 -11 -12 -14 -26 -6 -24 -12 -34 -42 -67 -6 -7
-14 -25 -18 -40 -3 -15 -11 -27 -16 -27 -6 0 -10 -9 -10 -20 0 -11 -7 -23 -15
-26 -8 -4 -15 -17 -15 -30 0 -14 -7 -27 -15 -30 -8 -4 -15 -15 -15 -25 0 -11
-7 -22 -15 -25 -8 -4 -15 -18 -15 -34 0 -16 -7 -30 -15 -34 -8 -3 -15 -10 -15
-16 0 -6 -7 -18 -15 -26 -8 -9 -15 -26 -15 -39 0 -12 -7 -25 -15 -29 -8 -3
-15 -12 -15 -20 0 -7 -7 -16 -15 -20 -9 -3 -15 -18 -15 -35 0 -16 -6 -31 -15
-35 -8 -3 -15 -14 -15 -25 0 -10 -7 -21 -15 -25 -8 -3 -15 -16 -15 -30 0 -13
-7 -26 -15 -30 -8 -3 -15 -15 -15 -26 0 -11 -4 -20 -9 -20 -5 0 -12 -13 -16
-30 -4 -16 -11 -30 -16 -30 -5 0 -9 -7 -9 -15 0 -9 -7 -18 -15 -21 -8 -4 -15
-16 -15 -29 0 -12 -13 -41 -30 -63 -16 -23 -30 -50 -30 -61 0 -10 -7 -24 -15
-31 -8 -7 -15 -19 -15 -27 0 -7 -7 -16 -15 -19 -9 -4 -15 -19 -15 -35 0 -19
-5 -29 -15 -29 -9 0 -15 -9 -15 -25 0 -14 -7 -28 -15 -31 -8 -4 -15 -16 -15
-29 0 -13 -7 -25 -15 -29 -8 -3 -15 -17 -15 -31 0 -16 -6 -25 -15 -25 -10 0
-15 -10 -15 -29 0 -16 -6 -31 -15 -35 -8 -3 -15 -14 -15 -25 0 -10 -7 -21 -15
-25 -8 -3 -15 -15 -15 -26 0 -11 -13 -39 -30 -62 -16 -22 -30 -47 -30 -55 0
-7 -4 -13 -9 -13 -5 0 -12 -13 -16 -30 -4 -16 -11 -30 -16 -30 -5 0 -9 -9 -9
-19 0 -11 -6 -26 -13 -33 -25 -26 -47 -68 -47 -88 0 -11 -7 -23 -15 -26 -8 -4
-15 -12 -15 -19 0 -7 -7 -18 -15 -25 -8 -7 -15 -23 -15 -37 0 -13 -7 -26 -15
-29 -8 -4 -15 -14 -15 -24 0 -10 -7 -20 -15 -24 -8 -3 -15 -17 -15 -31 0 -16
-6 -25 -15 -25 -9 0 -15 -9 -15 -25 0 -14 -4 -25 -10 -25 -5 0 -10 11 -10 25
0 14 5 25 10 25 6 0 10 15 10 34 0 19 7 41 15 50 9 9 15 34 15 66 0 36 4 52
15 56 10 4 15 20 15 45 0 26 5 42 15 45 11 4 15 21 15 59 0 38 4 55 15 59 8 3
15 18 15 34 0 15 7 37 15 48 8 10 15 36 15 56 0 20 4 39 9 43 6 3 13 26 17 52
4 25 13 58 20 72 8 14 14 40 14 58 0 17 4 34 9 38 6 3 13 26 17 50 3 25 10 45
14 45 4 0 11 25 15 55 3 30 10 57 15 60 4 2 11 25 14 50 4 25 11 45 15 45 5 0
11 23 13 52 3 29 11 54 17 56 6 2 11 18 11 36 0 18 7 41 15 52 8 10 15 38 15
61 0 23 7 48 15 57 8 8 15 31 15 51 0 22 6 38 15 41 11 5 15 21 15 60 0 39 4
56 15 60 9 4 15 20 15 43 0 20 7 45 15 55 8 11 15 36 15 57 0 20 7 42 15 49 9
7 15 29 15 55 0 26 6 48 15 55 9 8 15 29 15 55 0 24 5 45 10 47 6 2 13 21 17
43 3 22 10 43 15 46 5 3 12 26 15 50 3 24 11 58 19 76 8 17 14 42 14 56 0 14
4 29 10 32 5 3 12 28 16 55 4 28 10 50 15 50 5 0 9 11 9 25 0 14 6 40 14 58 7
18 16 54 20 80 4 26 11 47 15 47 5 0 11 21 14 46 2 26 9 49 15 53 5 3 11 30
14 60 3 29 10 56 16 60 6 3 12 27 14 51 2 29 7 44 16 43 8 -2 12 12 12 46 0
31 5 53 15 61 9 7 15 29 15 55 0 26 6 48 15 55 9 8 15 30 15 57 0 30 5 45 15
49 10 4 15 20 15 48 0 23 7 51 15 62 8 10 15 35 15 54 0 19 7 44 15 54 8 11
15 32 15 48 0 15 4 28 10 28 5 0 12 16 16 36 4 20 17 47 30 61 13 14 26 34 30
45 8 26 71 88 90 88 8 0 17 7 20 15 4 8 12 15 19 15 7 0 15 7 19 15 3 8 14 15
25 15 11 0 32 6 48 14 84 42 98 45 228 45 99 0 135 -3 149 -14z m-1518 -45
c109 -5 219 -13 244 -19 25 -5 81 -10 125 -11 44 0 86 -4 94 -9 15 -10 18 -70
3 -80 -5 -3 -12 -30 -15 -60 -4 -30 -10 -57 -15 -60 -5 -3 -12 -24 -15 -45 -4
-22 -10 -42 -15 -45 -5 -3 -12 -28 -15 -56 -3 -27 -10 -51 -16 -53 -6 -2 -11
-21 -11 -43 0 -26 -5 -42 -15 -45 -11 -4 -15 -21 -15 -59 0 -34 -5 -57 -15
-65 -9 -8 -15 -30 -15 -57 0 -30 -5 -45 -15 -49 -11 -4 -15 -21 -15 -59 0 -38
-4 -55 -15 -59 -10 -3 -15 -19 -15 -45 0 -25 -5 -41 -15 -45 -11 -4 -15 -20
-15 -54 0 -32 -5 -54 -15 -62 -9 -7 -15 -29 -15 -50 0 -21 -5 -40 -11 -42 -6
-2 -14 -28 -17 -58 -2 -30 -9 -58 -14 -61 -5 -3 -12 -25 -15 -48 -3 -22 -9
-41 -14 -41 -4 0 -11 -25 -14 -55 -4 -30 -11 -55 -15 -55 -4 0 -10 -18 -14
-40 -3 -23 -11 -49 -16 -58 -5 -9 -12 -38 -15 -64 -3 -27 -10 -48 -14 -48 -5
0 -11 -19 -14 -41 -3 -23 -10 -45 -15 -48 -5 -3 -12 -31 -14 -61 -3 -30 -11
-56 -17 -58 -6 -2 -11 -19 -11 -37 0 -19 -7 -40 -15 -49 -9 -9 -15 -33 -15
-61 0 -31 -5 -47 -15 -51 -10 -4 -15 -20 -15 -45 0 -26 -5 -42 -15 -45 -11 -4
-15 -21 -15 -59 0 -38 -4 -55 -15 -59 -10 -3 -15 -19 -15 -45 0 -25 -5 -41
-15 -45 -11 -4 -15 -20 -15 -56 0 -32 -6 -57 -15 -66 -8 -9 -15 -30 -15 -49 0
-18 -5 -35 -11 -37 -6 -2 -13 -26 -16 -53 -3 -28 -12 -59 -19 -70 -8 -11 -14
-32 -14 -47 0 -15 -4 -29 -9 -33 -5 -3 -13 -30 -16 -60 -4 -30 -11 -55 -15
-55 -4 0 -11 -20 -14 -45 -4 -25 -11 -45 -17 -45 -5 0 -9 -17 -9 -37 0 -21 -7
-51 -15 -67 -8 -15 -15 -36 -15 -45 0 -9 -7 -29 -15 -45 -8 -15 -15 -45 -15
-66 0 -21 -7 -45 -15 -54 -8 -8 -15 -30 -15 -49 0 -19 -7 -40 -15 -47 -10 -8
-15 -30 -15 -62 0 -31 -6 -55 -15 -64 -8 -9 -15 -29 -15 -45 0 -17 -7 -37 -15
-45 -9 -9 -15 -34 -15 -58 0 -27 -6 -48 -15 -56 -8 -7 -15 -26 -15 -42 0 -16
-7 -36 -15 -44 -10 -10 -15 -35 -15 -68 0 -35 -5 -58 -15 -66 -8 -7 -15 -28
-15 -47 0 -19 -7 -41 -15 -49 -9 -10 -15 -34 -15 -64 0 -27 -5 -50 -11 -52 -5
-2 -13 -22 -16 -46 -3 -23 -9 -42 -14 -42 -4 0 -11 -26 -15 -57 -3 -32 -10
-62 -14 -68 -4 -5 -11 -25 -15 -42 -3 -18 -10 -33 -15 -33 -4 0 -10 -23 -14
-50 -4 -27 -11 -50 -16 -50 -5 0 -12 -11 -16 -25 -3 -14 -10 -22 -15 -19 -12
7 -11 326 1 359 6 15 12 246 15 558 3 296 10 554 16 582 5 28 14 340 20 695 5
355 13 778 18 940 6 162 12 446 15 630 6 355 15 493 34 512 7 7 12 20 12 30 0
10 7 21 15 24 8 4 15 17 15 30 0 14 6 27 14 30 8 3 17 16 20 30 4 13 11 24 16
24 6 0 10 7 10 15 0 8 7 15 15 15 8 0 15 7 15 15 0 8 6 15 13 15 7 0 20 9 30
20 9 11 24 20 32 20 8 0 15 5 15 10 0 6 6 10 14 10 8 0 16 7 20 15 3 8 13 15
23 15 10 0 27 7 37 15 11 8 38 15 60 16 23 1 52 4 66 9 14 4 34 6 46 3 11 -2
110 -8 220 -13z m2497 -659 c6 -6 21 -11 33 -11 12 0 27 -7 34 -15 7 -8 25
-15 40 -15 15 0 52 -13 83 -30 31 -16 67 -30 81 -30 13 0 26 -7 30 -15 3 -8
17 -15 31 -15 16 0 25 -6 25 -15 0 -11 11 -15 40 -15 27 0 43 -5 46 -15 4 -8
16 -15 28 -15 11 0 30 -7 40 -15 11 -8 32 -15 47 -15 15 0 29 -7 33 -15 3 -8
16 -15 30 -15 13 0 26 -5 28 -10 2 -6 21 -13 43 -17 22 -3 46 -12 53 -20 7 -7
22 -13 33 -13 10 0 19 -4 19 -10 0 -5 18 -13 40 -16 22 -4 40 -10 40 -14 0 -5
14 -11 30 -15 17 -4 30 -10 30 -15 0 -4 20 -11 45 -14 25 -4 45 -11 45 -16 0
-5 14 -11 30 -15 17 -4 30 -10 30 -14 0 -5 19 -11 41 -14 23 -3 45 -10 48 -15
3 -6 19 -14 34 -17 15 -4 27 -11 27 -16 0 -5 13 -9 28 -9 16 0 37 -7 48 -15
10 -8 29 -15 40 -15 12 0 24 -7 28 -15 3 -9 18 -15 35 -15 16 0 36 -7 45 -15
8 -8 26 -15 40 -15 16 0 26 -6 26 -15 0 -10 10 -15 28 -15 15 0 36 -7 46 -15
11 -8 28 -15 39 -15 10 0 25 -7 33 -15 9 -8 24 -15 35 -15 11 0 27 -7 35 -15
9 -8 28 -15 44 -15 16 0 30 -7 34 -15 3 -8 17 -15 31 -15 14 0 25 -4 25 -10 0
-5 16 -12 35 -16 19 -3 35 -10 35 -15 0 -5 18 -12 40 -15 22 -4 40 -10 40 -14
0 -5 14 -11 30 -15 17 -4 30 -10 30 -15 0 -4 18 -10 40 -14 22 -3 40 -10 40
-15 0 -5 16 -12 35 -15 19 -4 35 -11 35 -15 0 -5 18 -11 40 -15 22 -3 40 -11
40 -16 0 -6 12 -10 28 -10 15 0 36 -7 46 -15 11 -8 30 -15 42 -15 12 0 27 -7
34 -15 7 -8 23 -15 35 -15 12 0 28 -7 35 -15 7 -8 25 -15 40 -15 16 0 30 -7
34 -15 3 -8 16 -15 28 -15 13 0 32 -7 42 -15 11 -8 32 -15 48 -15 15 0 28 -4
28 -10 0 -5 12 -13 28 -16 15 -4 30 -11 33 -16 3 -5 23 -12 45 -15 21 -4 45
-12 52 -20 7 -7 22 -13 33 -13 10 0 19 -4 19 -10 0 -5 18 -13 40 -16 22 -4 40
-10 40 -14 0 -4 16 -11 35 -14 19 -4 35 -11 35 -15 0 -5 18 -11 40 -15 22 -3
40 -11 40 -16 0 -6 11 -10 24 -10 13 0 29 -7 36 -15 7 -8 22 -15 34 -15 12 0
31 -7 42 -15 10 -8 29 -15 42 -15 12 0 25 -7 28 -15 4 -8 18 -15 34 -15 16 0
35 -7 44 -15 8 -8 26 -15 39 -15 14 0 27 -7 31 -15 3 -9 18 -15 35 -15 16 0
36 -7 45 -15 8 -8 26 -15 40 -15 14 0 26 -4 26 -10 0 -5 17 -12 37 -16 21 -4
44 -13 51 -21 7 -7 22 -13 33 -13 10 0 19 -5 19 -10 0 -6 8 -14 18 -17 9 -4
29 -18 43 -32 15 -14 35 -34 45 -43 28 -25 44 -46 44 -58 0 -5 7 -10 15 -10 8
0 15 -6 15 -14 0 -8 7 -16 15 -20 8 -3 15 -17 15 -31 0 -16 6 -25 15 -25 10 0
15 -10 15 -29 0 -16 6 -31 15 -35 11 -4 15 -22 15 -70 0 -36 5 -68 10 -71 6
-3 10 -28 10 -55 0 -27 -4 -52 -10 -55 -5 -3 -10 -26 -10 -49 0 -27 -6 -48
-15 -56 -8 -7 -15 -19 -15 -27 0 -8 -7 -21 -15 -29 -8 -9 -15 -29 -15 -45 0
-19 -5 -29 -15 -29 -10 0 -15 -10 -15 -30 0 -20 -5 -30 -15 -30 -10 0 -15 -11
-15 -35 0 -24 -5 -35 -15 -35 -9 0 -15 -10 -15 -26 0 -14 -7 -32 -15 -40 -8
-9 -15 -28 -15 -44 0 -16 -7 -30 -15 -34 -8 -3 -15 -17 -15 -31 0 -14 -4 -25
-10 -25 -5 0 -13 -18 -16 -40 -4 -22 -10 -40 -14 -40 -5 0 -11 -13 -15 -30 -4
-16 -11 -30 -16 -30 -5 0 -9 -8 -9 -17 0 -10 -7 -31 -15 -47 -8 -15 -15 -34
-15 -41 0 -7 -7 -18 -15 -25 -8 -7 -15 -25 -15 -40 0 -15 -7 -33 -15 -40 -8
-7 -15 -23 -15 -37 0 -13 -7 -26 -15 -29 -9 -4 -15 -19 -15 -40 0 -22 -6 -37
-15 -40 -8 -4 -15 -17 -15 -30 0 -14 -7 -27 -15 -30 -10 -4 -15 -20 -15 -45 0
-28 -4 -39 -15 -39 -10 0 -15 -10 -15 -29 0 -16 -6 -31 -15 -35 -9 -3 -15 -18
-15 -40 0 -21 -6 -36 -15 -40 -9 -3 -15 -18 -15 -35 0 -16 -6 -31 -15 -35 -8
-3 -15 -17 -15 -31 0 -14 -4 -25 -10 -25 -5 0 -10 -6 -10 -13 0 -7 -9 -29 -20
-50 -11 -20 -20 -45 -20 -54 0 -10 -7 -27 -15 -37 -8 -11 -15 -28 -15 -38 0
-10 -4 -18 -9 -18 -5 0 -11 -18 -15 -40 -3 -22 -11 -40 -16 -40 -6 0 -10 -11
-10 -24 0 -13 -6 -29 -14 -35 -7 -6 -16 -29 -20 -51 -3 -22 -11 -40 -16 -40
-6 0 -10 -11 -10 -25 0 -14 -7 -28 -15 -31 -8 -4 -15 -18 -15 -34 0 -16 -7
-35 -15 -44 -8 -8 -15 -26 -15 -39 0 -14 -7 -27 -15 -31 -9 -3 -15 -18 -15
-40 0 -21 -6 -36 -15 -40 -8 -3 -15 -16 -15 -30 0 -13 -7 -26 -15 -30 -8 -3
-15 -17 -15 -31 0 -15 -7 -33 -15 -41 -8 -9 -15 -28 -15 -44 0 -16 -7 -30 -15
-34 -8 -3 -15 -17 -15 -31 0 -15 -7 -33 -15 -41 -8 -9 -15 -24 -15 -35 0 -10
-4 -19 -10 -19 -5 0 -13 -18 -16 -40 -4 -22 -10 -40 -14 -40 -5 0 -11 -13 -15
-30 -4 -16 -11 -30 -16 -30 -5 0 -9 -10 -9 -22 -1 -13 -9 -41 -20 -63 -11 -22
-19 -46 -20 -52 0 -7 -4 -13 -10 -13 -5 0 -10 -13 -10 -29 0 -16 -6 -36 -13
-43 -8 -7 -17 -26 -21 -41 -3 -15 -11 -27 -16 -27 -6 0 -10 -13 -10 -29 0 -16
-7 -34 -15 -41 -8 -7 -15 -21 -15 -31 0 -9 -7 -24 -15 -33 -8 -8 -15 -26 -15
-41 0 -14 -7 -28 -15 -31 -9 -4 -15 -19 -15 -35 0 -19 -5 -29 -15 -29 -11 0
-15 -11 -15 -39 0 -25 -5 -41 -15 -45 -8 -3 -15 -16 -15 -30 0 -13 -7 -26 -15
-30 -9 -3 -15 -18 -15 -40 0 -21 -6 -36 -15 -40 -8 -3 -15 -17 -15 -31 0 -15
-7 -33 -15 -41 -8 -9 -15 -28 -15 -44 0 -16 -7 -30 -15 -34 -8 -3 -15 -17 -15
-31 0 -14 -4 -25 -10 -25 -5 0 -12 -16 -16 -35 -3 -19 -10 -35 -15 -35 -5 0
-9 -11 -9 -24 0 -14 -7 -31 -15 -40 -8 -8 -15 -24 -15 -35 0 -11 -7 -26 -15
-35 -8 -8 -15 -24 -15 -36 0 -11 -7 -23 -15 -26 -10 -4 -15 -20 -15 -44 0 -24
-5 -40 -15 -44 -8 -3 -15 -17 -15 -31 0 -14 -7 -28 -15 -31 -9 -4 -15 -19 -15
-40 0 -22 -6 -37 -15 -40 -8 -4 -15 -17 -15 -30 0 -14 -7 -27 -15 -30 -9 -4
-15 -19 -15 -40 0 -22 -6 -37 -15 -40 -8 -4 -15 -16 -15 -29 0 -13 -7 -25 -15
-29 -9 -3 -15 -18 -15 -36 0 -17 -7 -38 -15 -46 -8 -9 -15 -24 -15 -35 0 -10
-4 -19 -10 -19 -5 0 -13 -18 -16 -40 -4 -22 -10 -40 -14 -40 -5 0 -11 -14 -15
-30 -4 -17 -11 -30 -16 -30 -5 0 -9 -7 -9 -16 0 -18 -39 -87 -52 -92 -4 -2 -8
-8 -8 -13 0 -16 -42 -69 -85 -110 -65 -61 -74 -69 -85 -69 -5 0 -10 -4 -10 -9
0 -5 -12 -12 -27 -16 -15 -3 -30 -10 -33 -13 -13 -17 -75 -42 -103 -42 -18 0
-45 -7 -62 -16 -43 -22 -268 -22 -310 0 -16 9 -40 16 -52 16 -12 0 -34 6 -50
14 -15 8 -46 22 -68 31 -38 16 -91 39 -125 55 -9 4 -30 11 -48 15 -18 3 -32
10 -32 15 0 5 -13 11 -30 15 -16 4 -30 11 -30 16 0 5 -11 9 -25 9 -14 0 -42 9
-62 20 -21 11 -43 20 -50 20 -7 0 -13 5 -13 10 0 6 -13 10 -29 10 -16 0 -36 7
-45 15 -8 8 -24 15 -36 15 -11 0 -23 7 -26 15 -4 8 -18 15 -33 15 -15 0 -36 7
-47 15 -10 8 -29 15 -42 15 -12 0 -25 7 -28 15 -4 8 -18 15 -33 15 -15 0 -36
7 -47 15 -10 8 -26 15 -35 15 -9 0 -22 7 -29 15 -7 8 -21 15 -30 15 -10 0 -31
6 -47 14 -52 27 -101 46 -117 46 -9 0 -16 4 -16 9 0 5 -13 12 -30 16 -16 4
-30 10 -30 15 0 4 -18 10 -40 14 -22 3 -40 10 -40 15 0 5 -13 12 -30 16 -16 4
-30 10 -30 14 0 5 -19 11 -41 14 -23 3 -45 10 -48 15 -3 6 -19 14 -34 17 -15
4 -27 11 -27 16 0 5 -11 9 -25 9 -14 0 -51 13 -82 30 -31 16 -61 30 -68 30 -6
0 -38 14 -70 30 -32 17 -69 30 -82 30 -13 0 -23 5 -23 10 0 6 -6 10 -13 10 -7
0 -30 9 -52 20 -22 11 -50 20 -62 20 -13 0 -23 5 -23 10 0 6 -6 10 -13 10 -7
0 -30 9 -52 20 -22 11 -45 20 -52 20 -7 0 -21 4 -31 9 -39 22 -84 40 -112 46
-16 4 -30 10 -30 15 0 5 -13 11 -30 15 -16 4 -30 10 -30 14 0 5 -19 11 -42 14
-24 3 -44 11 -46 16 -2 6 -15 11 -28 11 -14 0 -27 7 -30 15 -4 8 -18 15 -34
15 -16 0 -35 7 -44 15 -8 8 -23 15 -34 15 -11 0 -25 6 -31 14 -6 7 -29 16 -51
20 -22 3 -40 11 -40 16 0 6 -11 10 -25 10 -14 0 -28 7 -31 15 -4 8 -18 15 -33
15 -15 0 -36 7 -47 15 -10 8 -29 15 -40 15 -12 0 -24 7 -28 15 -3 9 -18 15
-35 15 -16 0 -36 7 -45 15 -8 8 -26 15 -40 15 -14 0 -26 5 -26 10 0 6 -6 10
-13 10 -7 0 -30 9 -52 20 -22 11 -47 20 -57 20 -9 0 -19 4 -23 9 -3 5 -19 12
-35 16 -17 4 -30 10 -30 15 0 4 -18 10 -40 14 -22 3 -40 10 -40 15 0 5 -16 12
-35 15 -19 4 -35 11 -35 15 0 5 -18 11 -40 15 -22 3 -40 11 -40 16 0 6 -9 10
-21 10 -11 0 -33 6 -47 13 -15 8 -42 21 -60 30 -19 9 -41 17 -51 17 -9 0 -25
6 -36 14 -11 7 -32 16 -47 20 -16 3 -28 11 -28 16 0 6 -11 10 -24 10 -25 0
-79 25 -104 47 -7 7 -20 13 -29 13 -9 0 -26 11 -39 25 -13 14 -28 25 -34 25
-13 0 -100 88 -100 101 0 6 -10 20 -23 32 -12 12 -31 40 -42 62 -11 22 -25 44
-32 48 -7 4 -13 18 -13 31 0 12 -7 31 -15 42 -8 10 -15 31 -15 46 0 15 -7 33
-15 42 -21 21 -21 232 0 260 8 11 15 34 15 52 0 17 7 37 15 44 8 7 15 25 15
41 0 16 4 29 10 29 5 0 12 11 16 25 3 14 10 25 14 25 5 0 12 10 15 23 8 28 38
90 47 97 3 3 10 18 13 33 4 15 11 27 16 27 5 0 9 6 9 14 0 8 6 21 13 28 8 7
17 26 21 41 3 15 11 27 16 27 6 0 10 9 10 20 0 11 7 23 15 26 8 4 15 17 15 29
0 13 6 30 13 37 7 7 16 21 20 31 3 9 11 17 17 17 5 0 10 11 10 25 0 14 7 28
15 31 8 4 15 17 15 30 0 15 6 24 15 24 9 0 15 9 15 25 0 14 7 28 15 31 8 4 15
14 15 24 0 10 7 23 15 30 8 7 15 20 15 30 0 10 7 23 15 30 8 7 15 19 15 26 0
8 4 14 9 14 5 0 12 12 16 27 3 15 10 30 13 33 10 7 52 95 52 109 0 6 5 11 10
11 6 0 10 6 10 14 0 8 6 21 13 28 8 7 17 26 21 41 3 15 11 27 16 27 6 0 10 6
10 14 0 7 7 19 15 26 8 7 15 21 15 31 0 9 7 24 15 33 8 8 15 21 15 29 0 8 7
17 15 21 8 3 15 17 15 31 0 14 4 25 9 25 5 0 14 14 20 30 5 17 15 30 20 30 6
0 11 11 11 24 0 13 7 29 15 36 8 7 15 20 15 30 0 10 7 20 15 24 8 3 15 16 15
30 0 13 7 26 15 30 8 3 15 15 15 26 0 11 4 20 10 20 5 0 13 12 16 27 4 15 13
34 21 41 7 7 13 22 13 33 0 10 4 19 9 19 5 0 12 14 16 30 4 17 11 30 16 30 5
0 9 7 9 15 0 9 7 18 15 21 8 4 15 17 15 30 0 14 7 27 15 30 8 4 15 15 15 25 0
11 7 22 15 25 9 4 15 19 15 35 0 17 6 32 15 35 8 4 15 15 15 25 0 11 7 22 15
25 8 4 15 17 15 30 0 14 7 27 15 30 8 4 15 15 15 25 0 11 7 22 15 25 8 4 15
14 15 24 0 10 6 25 13 32 7 7 16 20 20 28 4 8 11 22 16 30 5 8 17 33 27 55 11
22 25 46 32 53 6 7 12 22 12 33 0 10 4 19 10 19 5 0 12 11 16 25 3 14 10 25
14 25 4 0 11 12 15 27 3 15 10 30 13 33 4 3 24 40 45 83 21 42 43 77 48 77 5
0 9 11 9 24 0 13 7 29 15 36 8 7 15 21 15 31 0 11 7 19 15 19 10 0 15 10 15
30 0 20 5 30 15 30 9 0 15 9 15 24 0 13 7 26 15 30 8 3 15 17 15 31 0 14 5 25
11 25 5 0 15 14 20 30 6 17 15 30 20 30 5 0 9 11 9 25 0 13 6 28 13 32 16 11
47 67 47 87 0 9 4 16 10 16 5 0 12 11 16 25 3 14 10 25 14 25 5 0 11 14 15 30
4 17 10 30 13 30 4 0 18 25 31 55 14 30 28 55 32 55 4 0 10 14 14 30 4 17 11
30 16 30 5 0 9 9 9 19 0 11 6 26 14 33 7 8 17 24 20 36 4 12 12 22 17 22 5 0
9 11 9 25 0 14 7 28 15 31 8 4 15 14 15 24 0 10 7 20 15 24 8 3 15 17 15 31 0
14 4 25 9 25 5 0 14 14 20 30 5 17 15 30 20 30 6 0 11 14 11 30 0 17 4 30 10
30 5 0 12 11 16 24 3 14 12 27 20 30 8 3 14 17 14 31 0 14 4 25 9 25 5 0 13
10 17 22 3 12 13 28 20 36 8 7 14 22 14 33 0 10 5 19 10 19 6 0 10 6 10 14 0
8 6 21 14 28 7 8 17 29 21 46 3 18 11 32 16 32 5 0 9 7 9 15 0 9 7 18 15 21 8
4 15 17 15 30 0 14 6 27 14 30 8 3 17 16 20 30 4 13 11 24 16 24 6 0 10 7 10
15 0 9 7 18 15 21 8 4 15 13 15 20 0 8 7 17 15 20 8 4 15 10 15 15 0 17 88 89
109 89 5 0 11 7 15 15 3 8 17 15 31 15 14 0 25 4 25 9 0 5 18 12 40 16 22 4
40 11 40 15 0 21 242 22 263 1z m-3655 -47 l23 -7 -5 -156 c-3 -86 -10 -392
-15 -681 -6 -289 -15 -544 -21 -568 -6 -25 -10 -260 -11 -590 -1 -301 -5 -628
-10 -727 -4 -99 -13 -381 -18 -627 -6 -281 -13 -454 -20 -467 -7 -13 -11 -134
-11 -348 -1 -209 -5 -344 -12 -373 -6 -25 -13 -148 -15 -274 -3 -191 -1 -235
12 -262 8 -17 15 -50 15 -72 0 -23 6 -45 15 -52 8 -7 15 -23 15 -36 0 -13 4
-24 9 -24 5 0 12 -15 16 -33 7 -36 36 -97 46 -97 4 0 10 -11 13 -25 4 -14 11
-25 16 -25 6 0 10 -7 10 -15 0 -9 7 -18 15 -21 8 -4 15 -15 15 -25 0 -11 7
-22 15 -25 8 -4 15 -12 15 -20 0 -8 7 -14 15 -14 8 0 15 -7 15 -15 0 -8 7 -15
15 -15 8 0 15 -7 15 -15 0 -8 7 -15 15 -15 8 0 15 -7 15 -15 0 -8 5 -15 10
-15 6 0 28 -18 49 -39 21 -21 50 -42 63 -46 12 -4 33 -18 45 -31 12 -13 31
-24 43 -24 11 0 23 -6 26 -14 3 -8 16 -17 30 -20 13 -4 24 -11 24 -16 0 -6 11
-10 25 -10 14 0 28 -6 31 -14 3 -8 19 -18 35 -21 16 -4 29 -11 29 -16 0 -5 15
-9 34 -9 19 0 41 -7 50 -15 8 -8 25 -15 38 -15 13 0 33 -7 44 -15 10 -8 29
-15 41 -15 29 0 39 -18 16 -27 -10 -4 -21 -11 -25 -16 -3 -6 -55 -12 -115 -15
-59 -3 -111 -9 -114 -14 -3 -5 -38 -12 -77 -15 -40 -3 -72 -10 -72 -14 0 -12
-137 -12 -144 0 -3 4 -29 11 -58 13 -29 3 -54 11 -56 17 -2 6 -15 11 -28 11
-14 0 -27 6 -30 14 -3 8 -16 17 -30 20 -13 4 -24 11 -24 16 0 6 -5 10 -11 10
-12 0 -109 97 -109 110 0 4 -7 10 -15 14 -8 3 -15 15 -15 26 0 11 -7 23 -15
26 -8 4 -15 18 -15 33 0 15 -7 36 -15 47 -9 12 -15 44 -15 89 0 41 -7 80 -15
95 -8 14 -15 50 -15 80 0 32 -7 63 -15 74 -10 13 -15 44 -15 92 0 55 -4 73
-15 78 -12 4 -15 24 -15 91 0 64 -4 90 -15 101 -11 12 -15 39 -15 104 0 60 -4
90 -12 92 -8 3 -14 32 -16 79 -2 41 -10 88 -18 106 -8 17 -14 60 -14 95 0 35
-5 69 -11 75 -6 6 -14 45 -17 85 -2 40 -9 76 -14 79 -5 3 -12 48 -15 100 -3
52 -9 96 -13 99 -6 5 -22 106 -41 265 -6 50 -15 92 -20 93 -5 2 -9 22 -9 45 0
23 -5 60 -11 82 -6 22 -15 75 -19 118 -4 43 -12 83 -18 90 -5 7 -12 47 -14 90
-3 43 -10 83 -17 90 -6 6 -11 43 -11 87 0 52 -5 82 -15 96 -9 12 -15 43 -15
84 0 37 -7 76 -15 90 -9 15 -14 54 -15 101 0 59 -4 78 -15 83 -11 4 -15 22
-15 75 0 46 -4 71 -12 73 -8 3 -14 34 -16 89 -3 46 -9 87 -15 91 -6 4 -13 40
-15 80 -3 40 -9 76 -16 80 -6 4 -12 44 -15 90 -2 46 -8 86 -13 89 -6 4 -12 37
-15 75 -3 38 -10 74 -14 80 -5 6 -12 47 -15 90 -4 43 -10 84 -15 89 -4 6 -11
44 -14 85 -4 41 -11 80 -15 85 -4 6 -10 46 -14 89 -3 43 -10 84 -15 90 -4 6
-11 45 -15 86 -4 41 -11 79 -16 84 -6 6 -10 39 -10 74 0 35 -6 78 -14 95 -8
18 -16 63 -19 100 -3 38 -10 74 -16 80 -6 6 -11 40 -11 76 0 35 -7 88 -16 117
-16 48 -16 55 0 102 9 28 16 65 16 82 0 31 22 81 48 108 6 7 12 19 12 25 0 7
8 20 18 28 9 9 28 30 42 48 14 17 30 31 37 31 7 0 13 7 13 15 0 8 7 15 15 15
9 0 18 6 21 14 3 8 16 17 30 20 13 4 24 11 24 16 0 6 12 10 28 10 15 0 36 7
46 15 11 8 27 15 37 15 9 0 30 7 45 15 19 10 58 15 109 15 45 0 85 4 91 10 5
5 36 12 69 15 33 4 69 11 80 15 37 17 161 25 203 14z"/>
<path d="M7536 5391 c-4 -5 -24 -12 -47 -16 -22 -4 -43 -13 -46 -21 -3 -8 -9
-14 -15 -14 -5 0 -16 -7 -24 -15 -9 -8 -24 -15 -35 -15 -10 0 -19 -7 -19 -15
0 -8 -7 -15 -15 -15 -8 0 -15 -4 -15 -10 0 -5 -7 -10 -15 -10 -8 0 -24 -9 -35
-20 -11 -11 -24 -20 -30 -20 -5 0 -10 -4 -10 -10 0 -5 -7 -10 -15 -10 -8 0
-22 -8 -32 -18 -10 -10 -40 -34 -68 -52 -27 -19 -51 -37 -53 -42 -2 -4 -8 -8
-14 -8 -6 0 -27 -13 -48 -30 -21 -16 -41 -30 -44 -30 -4 0 -17 -11 -29 -24
-13 -14 -35 -28 -50 -31 -15 -4 -27 -13 -27 -21 0 -8 -7 -14 -15 -14 -8 0 -15
-4 -15 -10 0 -5 -11 -12 -24 -16 -14 -3 -27 -12 -30 -20 -3 -8 -12 -14 -21
-14 -8 0 -15 -4 -15 -9 0 -5 -10 -13 -22 -17 -12 -3 -33 -17 -47 -31 -14 -13
-36 -26 -48 -29 -13 -4 -23 -10 -23 -15 0 -5 -7 -9 -15 -9 -8 0 -15 -6 -15
-14 0 -8 -13 -17 -30 -21 -16 -4 -30 -11 -30 -16 0 -5 -7 -9 -15 -9 -8 0 -15
-6 -15 -14 0 -8 -10 -16 -23 -20 -13 -3 -36 -17 -51 -31 -15 -14 -31 -25 -37
-25 -5 0 -9 -4 -9 -10 0 -5 -11 -12 -25 -16 -14 -3 -25 -10 -25 -15 0 -5 -8
-13 -17 -16 -10 -4 -31 -19 -46 -35 -16 -15 -35 -28 -43 -28 -8 0 -14 -4 -14
-10 0 -5 -6 -10 -13 -10 -7 0 -20 -9 -30 -20 -9 -11 -24 -20 -32 -20 -8 0 -15
-4 -15 -10 0 -5 -7 -10 -15 -10 -8 0 -15 -6 -15 -14 0 -8 -10 -16 -22 -20 -13
-3 -35 -17 -50 -31 -15 -14 -30 -25 -32 -25 -6 0 -37 -24 -61 -47 -8 -7 -16
-13 -20 -13 -8 0 -69 -43 -73 -52 -2 -5 -10 -8 -17 -8 -7 0 -15 -7 -19 -15 -3
-10 -19 -15 -46 -15 -37 0 -40 2 -40 29 0 16 -6 31 -15 35 -8 3 -15 17 -15 31
0 16 -6 25 -15 25 -11 0 -15 11 -15 39 0 25 -5 41 -15 45 -8 3 -15 16 -15 28
0 13 -7 32 -15 42 -8 11 -15 32 -15 47 0 15 -7 29 -15 33 -8 3 -15 13 -15 23
0 10 -7 27 -15 37 -8 11 -15 30 -15 43 0 13 -4 23 -9 23 -5 0 -12 13 -16 30
-4 16 -11 32 -16 35 -5 4 -9 16 -9 28 -1 12 -9 40 -20 62 -11 22 -19 46 -20
53 0 6 -4 12 -10 12 -5 0 -10 14 -10 30 0 18 -6 33 -15 36 -8 4 -15 16 -15 29
0 12 -7 28 -15 35 -8 7 -15 27 -15 45 0 18 -7 38 -15 45 -8 7 -15 23 -15 37 0
13 -7 26 -15 29 -9 4 -15 19 -15 35 0 17 -6 32 -15 35 -8 4 -15 17 -15 30 0
15 -6 24 -15 24 -8 0 -15 9 -15 20 0 11 -5 20 -11 20 -7 0 -22 12 -36 26 -22
24 -30 25 -113 25 l-91 0 -50 -51 -50 -52 0 -90 c0 -73 3 -93 15 -100 9 -5 16
-19 16 -31 0 -12 7 -31 15 -41 8 -11 15 -30 15 -42 0 -12 7 -24 15 -28 8 -3
15 -17 15 -31 0 -14 4 -25 10 -25 5 0 12 -17 16 -37 4 -21 13 -47 20 -58 8
-11 14 -27 14 -37 0 -10 4 -18 10 -18 5 0 12 -16 16 -35 3 -19 10 -35 15 -35
5 0 9 -11 9 -24 0 -14 6 -31 13 -38 8 -7 16 -31 20 -52 3 -22 10 -42 15 -45 5
-3 12 -18 16 -33 3 -16 11 -28 16 -28 6 0 10 -14 10 -30 0 -18 6 -33 15 -36 8
-4 15 -18 15 -34 0 -16 7 -35 15 -44 8 -8 15 -26 15 -41 0 -14 7 -28 15 -31 8
-4 15 -17 15 -30 0 -14 7 -27 15 -30 10 -4 15 -20 15 -44 0 -24 5 -40 15 -44
8 -3 15 -16 15 -29 0 -13 7 -32 15 -43 8 -10 15 -26 15 -35 0 -9 14 -41 30
-72 17 -31 30 -68 30 -82 0 -14 4 -25 9 -25 5 0 13 -13 19 -28 13 -38 59 -85
104 -105 48 -22 170 -23 188 -2 7 8 21 15 32 15 10 0 21 7 24 15 4 8 12 15 20
15 8 0 14 6 14 14 0 8 11 17 25 20 14 4 25 11 25 16 0 6 7 10 15 10 8 0 15 5
15 11 0 5 14 15 30 20 17 6 30 15 30 20 0 5 7 9 15 9 8 0 15 4 15 9 0 5 20 22
45 38 25 15 45 31 45 36 0 4 7 7 15 7 8 0 15 5 15 10 0 6 6 10 13 10 8 0 22 9
32 20 10 11 23 20 28 20 5 0 20 11 32 24 12 13 33 27 46 31 13 4 33 18 45 30
11 13 31 26 42 30 12 3 22 11 22 16 0 5 7 9 15 9 8 0 15 6 15 14 0 8 12 17 26
20 14 4 35 17 47 30 12 12 41 31 64 42 23 10 43 25 43 32 0 6 6 12 13 12 6 0
28 14 47 30 19 16 39 30 43 30 4 0 17 8 28 18 10 11 32 25 47 33 15 7 37 24
49 36 12 13 31 23 43 23 11 0 20 7 20 15 0 8 7 15 15 15 9 0 18 7 21 15 4 8
15 15 25 15 11 0 22 7 25 15 4 8 12 15 19 15 7 0 15 7 19 15 3 8 15 15 26 15
11 0 23 7 26 15 4 8 12 15 19 15 7 0 15 7 19 15 3 8 12 15 20 15 8 0 30 14 48
30 18 17 38 30 46 30 7 0 23 11 35 24 13 14 35 28 50 31 15 4 27 13 27 21 0 8
7 14 15 14 8 0 15 5 15 10 0 6 6 10 13 10 8 0 22 9 32 20 10 11 24 20 32 20 7
0 13 5 13 10 0 6 6 10 13 10 8 0 22 9 32 20 10 11 23 20 28 20 5 0 20 11 32
24 12 13 32 27 43 31 12 3 22 11 22 16 0 5 5 9 10 9 12 0 73 41 78 53 2 4 8 7
13 7 14 0 79 70 79 86 0 8 4 23 9 32 11 22 -8 134 -26 145 -7 4 -13 13 -13 18
0 21 -66 70 -103 76 -20 3 -40 10 -43 14 -7 12 -41 11 -48 0z"/>
</g>
</svg>
