<?xml version="1.0" standalone="no"?>
<svg version="1.0" xmlns="http://www.w3.org/2000/svg"
 width="130" height="50" fill="none" viewBox="0 0 1377.000000 522.000000"
 preserveAspectRatio="xMidYMid meet">

<g transform="translate(0.000000,522.000000) scale(0.100000,-0.100000)"
fill="#635BFF" stroke="none">
<path d="M3055 4709 c-49 -5 -99 -11 -110 -15 -11 -3 -87 -14 -170 -25 -82
-10 -197 -25 -255 -34 -330 -48 -354 -50 -625 -50 -307 0 -336 -6 -441 -85
-53 -40 -134 -132 -134 -152 0 -16 -33 -82 -44 -90 -6 -4 -32 -8 -57 -8 -85 0
-281 -40 -345 -69 -109 -51 -188 -140 -225 -252 -16 -49 -19 -81 -16 -153 3
-81 60 -450 87 -566 6 -25 15 -83 21 -130 5 -47 14 -98 19 -115 6 -16 14 -59
20 -95 17 -115 40 -253 55 -335 8 -44 26 -159 40 -255 15 -96 33 -204 40 -240
8 -36 17 -96 21 -135 4 -38 9 -74 13 -80 3 -5 14 -62 23 -125 28 -189 47 -291
64 -344 34 -105 115 -196 214 -241 19 -9 46 -22 59 -28 30 -15 232 -15 263 0
13 6 84 18 158 27 74 9 200 25 280 36 80 11 154 17 165 14 29 -9 174 -64 215
-82 19 -8 50 -21 68 -29 17 -7 47 -19 65 -27 17 -8 48 -19 67 -26 19 -7 53
-20 75 -30 22 -9 65 -27 95 -40 30 -12 71 -29 90 -38 74 -31 100 -42 260 -107
175 -71 199 -81 270 -113 135 -61 196 -75 315 -69 121 6 195 32 286 103 72 55
112 108 151 201 16 38 35 82 43 100 8 17 15 38 15 46 0 9 3 17 8 19 4 2 18 30
31 63 13 33 32 78 42 100 10 22 46 108 79 190 34 83 80 193 102 245 22 52 49
118 61 145 42 103 58 141 72 168 8 16 15 33 15 38 0 6 12 36 26 67 14 31 32
71 39 87 8 17 46 109 86 205 87 213 245 586 262 619 7 15 12 70 12 140 0 131
-10 163 -78 263 -60 88 -141 142 -302 203 -112 42 -140 60 -138 87 1 13 5 57
9 98 11 123 -29 231 -118 317 -81 78 -103 86 -468 169 -63 14 -153 34 -200 44
-101 22 -161 37 -164 42 -1 1 -15 39 -31 82 -24 66 -38 89 -89 140 -112 112
-206 142 -391 125z m193 -208 c20 -11 50 -33 66 -50 l30 -31 -30 0 c-16 0 -63
9 -104 20 -41 12 -99 26 -129 33 -66 15 -78 34 -24 40 99 10 155 7 191 -12z
m-613 -125 c61 -15 117 -30 125 -33 30 -12 192 -49 365 -83 86 -17 261 -56
400 -91 66 -16 152 -36 190 -43 39 -8 88 -19 110 -25 22 -5 76 -17 120 -27
191 -41 270 -65 305 -93 54 -43 73 -83 78 -167 4 -71 4 -74 -17 -74 -12 0 -41
9 -64 19 -85 38 -193 83 -242 101 -51 19 -284 113 -320 130 -11 5 -56 23 -100
40 -44 17 -89 35 -100 39 -21 10 -75 33 -160 69 -131 56 -253 104 -280 111
-17 4 -40 13 -52 19 -34 19 -153 14 -224 -8 -122 -37 -215 -118 -278 -238 -20
-38 -65 -125 -100 -193 -35 -68 -67 -128 -71 -134 -7 -10 -91 -167 -153 -285
-15 -30 -32 -62 -37 -70 -5 -8 -11 -22 -14 -30 -4 -8 -15 -28 -25 -45 -11 -16
-38 -66 -61 -110 -56 -110 -147 -284 -199 -380 -24 -44 -57 -105 -73 -135 -31
-58 -57 -91 -43 -55 10 27 58 187 104 355 44 157 62 219 81 285 22 74 57 200
70 250 4 17 17 64 29 105 41 138 59 204 81 290 12 47 26 92 30 100 4 9 11 31
14 50 9 44 42 160 63 220 19 55 61 120 78 120 7 0 18 7 25 15 35 42 176 42
345 1z m-687 -1 c42 -5 72 -12 72 -19 0 -6 -14 -58 -30 -115 -17 -57 -30 -112
-30 -122 0 -10 -4 -20 -9 -23 -4 -3 -11 -25 -15 -48 -4 -24 -13 -61 -20 -83
-35 -105 -146 -504 -146 -526 0 -10 -4 -20 -9 -23 -5 -4 -12 -25 -16 -49 -4
-23 -13 -55 -20 -72 -7 -16 -18 -48 -23 -70 -9 -35 -36 -130 -76 -275 -7 -25
-21 -74 -31 -110 -9 -36 -21 -74 -25 -85 -5 -11 -14 -45 -21 -75 -7 -30 -15
-62 -19 -70 -4 -8 -15 -44 -24 -80 -31 -125 -57 -211 -71 -243 -13 -29 -14 -8
-10 213 3 135 10 457 16 715 5 259 14 590 18 736 l8 265 28 51 c33 57 105 113
161 122 34 6 143 0 292 -14z m1006 -294 c3 -5 18 -12 33 -15 25 -6 158 -59
268 -106 22 -10 51 -21 65 -25 14 -4 34 -14 45 -21 11 -8 26 -14 33 -14 8 0
28 -6 45 -14 35 -16 167 -70 287 -118 41 -16 79 -33 85 -37 5 -5 28 -14 50
-21 22 -7 45 -16 50 -20 6 -4 46 -19 90 -34 44 -16 104 -39 133 -52 29 -13 57
-24 61 -24 5 0 22 -7 38 -15 37 -19 89 -40 138 -56 22 -7 45 -16 50 -20 6 -4
64 -28 130 -54 66 -26 131 -52 144 -58 37 -18 106 -92 126 -134 24 -49 25
-157 3 -198 -9 -16 -26 -51 -37 -77 -12 -27 -29 -67 -40 -90 -10 -24 -24 -59
-31 -78 -8 -19 -20 -44 -27 -55 -7 -11 -13 -25 -13 -33 0 -7 -8 -32 -19 -55
-10 -23 -29 -67 -41 -97 -13 -30 -33 -77 -45 -105 -13 -27 -49 -115 -80 -195
-56 -142 -69 -173 -115 -275 -12 -27 -37 -88 -56 -135 -32 -83 -59 -148 -91
-220 -9 -19 -21 -48 -28 -65 -30 -72 -108 -260 -180 -430 -101 -239 -113 -258
-205 -313 -41 -24 -54 -27 -145 -27 -87 0 -109 4 -169 29 -38 15 -77 32 -85
37 -24 13 -97 43 -189 78 -46 18 -91 36 -100 41 -16 9 -71 31 -192 80 -30 12
-59 26 -65 31 -5 5 -16 9 -24 9 -8 0 -33 9 -55 19 -23 11 -72 32 -111 46 -80
31 -127 51 -170 70 -16 8 -66 28 -110 45 -44 18 -89 36 -100 40 -70 30 -171
70 -176 70 -4 0 -41 16 -82 35 -41 19 -81 35 -89 35 -8 0 -18 4 -23 9 -6 5
-28 14 -49 21 -80 26 -171 75 -209 113 -21 21 -53 68 -69 104 -28 59 -30 71
-25 137 4 63 13 86 72 201 36 72 78 150 91 175 14 25 57 106 96 180 39 74 74
140 78 145 4 6 40 73 80 150 40 77 92 175 114 217 23 42 79 148 125 235 46 87
98 183 114 213 29 51 87 162 206 390 27 52 64 124 83 159 40 76 107 147 148
156 16 4 32 11 35 16 8 12 122 12 129 0z m-1678 -163 c-9 -212 -25 -808 -36
-1363 -6 -269 -16 -550 -22 -623 -13 -154 -4 -227 44 -330 49 -106 173 -215
289 -255 24 -9 60 -22 79 -30 34 -15 34 -15 10 -21 -14 -3 -38 -7 -55 -10 -16
-2 -60 -10 -96 -16 -58 -11 -74 -10 -121 5 -58 18 -101 50 -135 100 -19 28
-39 109 -64 270 -5 33 -18 116 -29 185 -11 69 -27 163 -35 210 -8 47 -26 157
-40 245 -14 88 -30 185 -36 215 -5 30 -17 98 -25 150 -9 52 -24 147 -35 210
-11 63 -26 151 -33 195 -8 44 -19 105 -25 135 -6 30 -22 127 -36 215 -14 88
-33 196 -42 240 -9 44 -17 112 -16 150 0 58 4 77 25 111 29 46 79 91 117 106
42 16 212 45 270 47 l53 1 -6 -142z"/>
<path d="M3895 2809 c-22 -12 -66 -40 -97 -63 -32 -22 -79 -56 -105 -74 -152
-104 -360 -250 -513 -359 -33 -24 -65 -43 -73 -43 -17 0 -47 63 -126 265 -28
72 -56 138 -61 147 -6 10 -10 24 -10 31 0 8 -14 35 -31 60 -30 45 -33 47 -78
47 -66 0 -95 -30 -89 -92 4 -34 82 -242 137 -363 5 -11 18 -40 30 -65 11 -25
23 -58 27 -75 4 -16 13 -39 19 -50 7 -11 18 -36 24 -57 7 -20 23 -48 37 -63
23 -25 31 -27 77 -23 47 4 66 14 197 109 80 57 147 107 148 112 2 4 8 7 13 7
5 0 44 25 86 55 43 30 150 103 238 162 270 183 305 211 305 245 0 46 -34 94
-71 102 -42 8 -39 9 -84 -15z"/>
<path d="M9515 2986 c-5 -3 -22 -7 -37 -10 l-28 -6 0 -161 c0 -150 -1 -161
-17 -154 -34 14 -170 17 -241 5 -220 -37 -363 -189 -393 -418 -40 -297 113
-529 386 -587 235 -49 523 27 591 157 19 37 21 1069 1 1107 -26 51 -61 66
-160 68 -51 1 -96 1 -102 -1z m-72 -597 c15 -9 17 -30 17 -229 l0 -219 -30
-16 c-16 -8 -55 -15 -88 -15 -85 0 -138 31 -174 99 -25 47 -28 64 -28 145 0
103 17 152 68 200 53 49 174 67 235 35z"/>
<path d="M12125 2981 l-30 -6 -3 -613 c-2 -677 -4 -655 60 -688 36 -18 189
-22 243 -6 l30 8 5 174 5 174 99 -125 c173 -217 206 -243 311 -243 97 -1 161
53 180 152 6 35 4 38 -154 196 l-161 161 124 107 c140 121 173 169 163 240
-10 72 -84 127 -189 142 -37 5 -39 3 -207 -169 l-169 -174 -4 294 c-3 278 -4
295 -24 322 -34 47 -79 63 -169 62 -44 -1 -93 -4 -110 -8z"/>
<path d="M6143 2910 c-190 -20 -329 -112 -378 -249 -20 -58 -20 -184 2 -247
22 -66 108 -151 193 -192 36 -17 120 -49 188 -73 150 -51 186 -73 190 -116 8
-77 -44 -108 -178 -107 -106 1 -176 21 -262 74 l-49 30 -46 -43 c-44 -41 -47
-48 -51 -104 -6 -90 24 -137 123 -186 85 -43 200 -60 350 -54 244 10 383 83
453 236 33 71 36 187 8 271 -40 115 -174 209 -406 285 -138 46 -170 65 -170
106 0 57 63 89 175 89 77 0 181 -22 235 -50 l42 -21 23 21 c34 32 55 82 55
130 0 113 -99 179 -300 200 -56 5 -107 9 -114 9 -6 -1 -43 -5 -83 -9z"/>
<path d="M6990 2855 c-8 -2 -36 -7 -62 -10 l-48 -6 0 -473 c0 -553 0 -550 84
-631 71 -70 134 -90 281 -90 97 0 116 3 159 25 28 14 59 37 69 52 28 38 33
114 10 158 l-18 35 -103 0 c-101 0 -104 1 -128 28 -23 27 -24 33 -24 198 l0
169 114 0 c98 0 117 3 139 20 49 39 58 121 22 206 l-14 34 -130 0 -129 0 -4
104 c-3 94 -5 107 -27 130 -13 14 -38 30 -55 35 -37 11 -115 20 -136 16z"/>
<path d="M10320 2654 c-174 -46 -301 -174 -340 -343 -17 -73 -15 -233 5 -305
48 -180 189 -311 380 -351 143 -30 328 -15 432 36 50 24 65 37 82 72 12 24 21
53 21 65 0 33 -24 84 -52 109 l-24 22 -59 -24 c-165 -66 -351 -53 -425 31 -16
19 -30 40 -30 47 0 9 80 24 258 50 145 22 272 46 292 55 19 9 45 33 58 52 21
31 23 43 19 105 -7 101 -39 175 -102 244 -60 64 -142 113 -230 136 -73 19
-212 18 -285 -1z m228 -250 c30 -18 56 -49 66 -80 6 -20 -2 -22 -160 -47 -92
-15 -169 -25 -172 -23 -7 8 8 61 28 93 10 18 36 41 57 52 48 25 143 28 181 5z"/>
<path d="M11432 2650 c-193 -52 -317 -182 -356 -372 -20 -94 -20 -153 -2 -239
54 -254 283 -411 577 -396 161 8 247 60 257 155 5 54 -10 92 -50 130 l-24 22
-60 -21 c-128 -45 -270 -9 -331 83 -23 34 -28 53 -31 126 -4 81 -2 91 25 142
42 79 101 114 202 118 57 3 91 -1 136 -16 69 -24 78 -20 107 46 38 85 -3 168
-104 212 -76 33 -243 38 -346 10z"/>
<path d="M7770 2643 c-19 -2 -50 -6 -68 -9 l-33 -5 3 -342 c3 -328 4 -344 26
-399 69 -173 249 -258 517 -245 66 3 145 13 175 21 77 22 176 72 200 103 37
48 41 91 38 441 -3 374 -5 384 -70 418 -34 18 -174 23 -235 10 l-33 -8 0 -349
0 -349 -27 -12 c-48 -19 -160 -14 -191 9 -58 42 -62 63 -62 354 0 261 0 267
-23 300 -12 19 -34 39 -47 45 -29 14 -120 23 -170 17z"/>
</g>
</svg>
